<?xml version="1.0" encoding="UTF-8" standalone="no"?>
<!-- Created with Inkscape (http://www.inkscape.org/) -->

<svg
   width="325mm"
   height="324.99997mm"
   viewBox="0 0 325 324.99998"
   version="1.1"
   id="svg5"
   inkscape:version="1.2.2 (732a01da63, 2022-12-09)"
   sodipodi:docname="PsychoAnalyze_inkscape.svg"
   xml:space="preserve"
   inkscape:export-filename="PsychoAnalyze_100x100.png"
   inkscape:export-xdpi="8.7120523"
   inkscape:export-ydpi="8.7120523"
   xmlns:inkscape="http://www.inkscape.org/namespaces/inkscape"
   xmlns:sodipodi="http://sodipodi.sourceforge.net/DTD/sodipodi-0.dtd"
   xmlns="http://www.w3.org/2000/svg"
   xmlns:svg="http://www.w3.org/2000/svg"><sodipodi:namedview
     id="namedview7"
     pagecolor="#505050"
     bordercolor="#eeeeee"
     borderopacity="1"
     inkscape:showpageshadow="0"
     inkscape:pageopacity="0"
     inkscape:pagecheckerboard="0"
     inkscape:deskcolor="#505050"
     inkscape:document-units="mm"
     showgrid="false"
     inkscape:zoom="0.52221046"
     inkscape:cx="471.07444"
     inkscape:cy="547.67191"
     inkscape:window-width="1920"
     inkscape:window-height="1009"
     inkscape:window-x="1912"
     inkscape:window-y="-8"
     inkscape:window-maximized="1"
     inkscape:current-layer="layer1" /><defs
     id="defs2"><filter
       inkscape:collect="always"
       style="color-interpolation-filters:sRGB"
       id="filter3155"
       x="-0.02521148"
       y="-0.016963601"
       width="1.050423"
       height="1.0339272"><feGaussianBlur
         inkscape:collect="always"
         stdDeviation="0.99957944"
         id="feGaussianBlur3157" /></filter><g
       class="clips"
       id="g17152"><clipPath
         id="clip73743bxyplot"
         class="plotclip"><rect
           width="340"
           height="360"
           id="rect17140"
           x="0"
           y="0" /></clipPath><clipPath
         class="axesclip"
         id="clip73743bx"><rect
           x="80"
           y="0"
           width="340"
           height="500"
           id="rect17143" /></clipPath><clipPath
         class="axesclip"
         id="clip73743by"><rect
           x="0"
           y="60"
           width="500"
           height="360"
           id="rect17146" /></clipPath><clipPath
         class="axesclip"
         id="clip73743bxy"><rect
           x="80"
           y="60"
           width="340"
           height="360"
           id="rect17149" /></clipPath></g></defs><g
     inkscape:label="Layer 1"
     inkscape:groupmode="layer"
     id="layer1"
     transform="translate(133.65673,-5.1220992)"><path
       class="xlines-above crisp"
       d="M -57.136132,79.308931"
       style="fill:none;stroke-width:0.264583"
       id="path714" /><path
       class="ylines-above crisp"
       d="M -57.136132,79.308931"
       style="fill:none;stroke-width:0.264583"
       id="path716" /><path
       class="xlines-above crisp"
       d="M -77.172294,55.743266"
       style="fill:none;stroke-width:0.264583"
       id="path1962" /><path
       class="ylines-above crisp"
       d="M -77.172294,55.743266"
       style="fill:none;stroke-width:0.264583"
       id="path1964" /><path
       class="xlines-above crisp"
       d="M -82.984192,85.320869"
       style="fill:none;stroke-width:0.264583"
       id="path9518" /><path
       class="ylines-above crisp"
       d="M -82.984192,85.320869"
       style="fill:none;stroke-width:0.264583"
       id="path9520" /><text
       xml:space="preserve"
       style="font-size:193.058px;line-height:1.25;font-family:Arial;-inkscape-font-specification:'Arial, Normal';text-align:center;text-anchor:middle;stroke-width:1.00551"
       x="-54.402946"
       y="182.6814"
       id="text113"><tspan
         sodipodi:role="line"
         id="tspan111"
         style="font-style:normal;font-variant:normal;font-weight:normal;font-stretch:normal;font-size:193.058px;font-family:'Linux Libertine Capitals';-inkscape-font-specification:'Linux Libertine Capitals';stroke-width:1.00551"
         x="-54.402946"
         y="182.6814">ℙ</tspan></text><text
       xml:space="preserve"
       style="font-size:199.057px;line-height:1.25;font-family:Arial;-inkscape-font-specification:'Arial, Normal';text-align:center;text-anchor:middle;opacity:0.812;fill:#333333;stroke-width:1.03676;filter:url(#filter3155)"
       x="3.8987603"
       y="150.09372"
       id="text2476"
       transform="matrix(1,0,0.66373191,1,13.260098,16.683784)"><tspan
         sodipodi:role="line"
         id="tspan2474"
         style="font-style:normal;font-variant:normal;font-weight:normal;font-stretch:normal;font-family:'Linux Libertine Capitals';-inkscape-font-specification:'Linux Libertine Capitals';fill:#333333;stroke-width:1.03676"
         x="3.898762"
         y="150.09372">λ</tspan></text><text
       xml:space="preserve"
       style="font-size:196.992px;line-height:1.25;font-family:Arial;-inkscape-font-specification:'Arial, Normal';text-align:center;text-anchor:middle;stroke-width:1.026"
       x="201.67909"
       y="-174.21391"
       id="text11847"
       transform="matrix(1,0,0.4777861,-1,0,0)"><tspan
         sodipodi:role="line"
         id="tspan11845"
         style="font-style:normal;font-variant:normal;font-weight:normal;font-stretch:normal;font-family:'Linux Libertine Capitals';-inkscape-font-specification:'Linux Libertine Capitals';stroke-width:1.026"
         x="201.67909"
         y="-174.21391">λ</tspan></text><g
       class="plot"
       transform="matrix(0.80334701,0,0,0.80334701,-106.18346,17.262535)"
       clip-path="url(#clip73743bxyplot)"
       id="g17277"><g
         class="scatterlayer mlayer"
         id="g17275"><g
           class="trace scatter tracec8080f"
           style="opacity:1;stroke-miterlimit:2"
           id="g17245"><g
             class="fills"
             id="g17221" /><g
             class="errorbars"
             id="g17223" /><g
             class="lines"
             id="g17225" /><g
             class="points"
             id="g17241"><path
               class="point"
               transform="translate(49.05,313.78)"
               d="M 11.55,0 A 11.55,11.55 0 1 1 0,-11.55 11.55,11.55 0 0 1 11.55,0 Z"
               style="opacity:0.7;fill:#636efa;fill-opacity:1;stroke:#ffffff;stroke-width:1px;stroke-opacity:1"
               id="path17227" /><path
               class="point"
               transform="translate(92.91,316.63)"
               d="M 12.11,0 A 12.11,12.11 0 1 1 0,-12.11 12.11,12.11 0 0 1 12.11,0 Z"
               style="opacity:0.7;fill:#636efa;fill-opacity:1;stroke:#ffffff;stroke-width:1px;stroke-opacity:1"
               id="path17229" /><path
               class="point"
               transform="translate(136.77,210.74)"
               d="M 9.66,0 A 9.66,9.66 0 1 1 0,-9.66 9.66,9.66 0 0 1 9.66,0 Z"
               style="opacity:0.7;fill:#636efa;fill-opacity:1;stroke:#ffffff;stroke-width:1px;stroke-opacity:1"
               id="path17231" /><path
               class="point"
               transform="translate(180.63,156.98)"
               d="M 14.14,0 A 14.14,14.14 0 1 1 0,-14.14 14.14,14.14 0 0 1 14.14,0 Z"
               style="opacity:0.7;fill:#636efa;fill-opacity:1;stroke:#ffffff;stroke-width:1px;stroke-opacity:1"
               id="path17233" /><path
               class="point"
               transform="translate(224.48,31.54)"
               d="M 12.11,0 A 12.11,12.11 0 1 1 0,-12.11 12.11,12.11 0 0 1 12.11,0 Z"
               style="opacity:0.7;fill:#636efa;fill-opacity:1;stroke:#ffffff;stroke-width:1px;stroke-opacity:1"
               id="path17235" /><path
               class="point"
               transform="translate(268.34,31.54)"
               d="M 10.95,0 A 10.95,10.95 0 1 1 0,-10.95 10.95,10.95 0 0 1 10.95,0 Z"
               style="opacity:0.7;fill:#636efa;fill-opacity:1;stroke:#ffffff;stroke-width:1px;stroke-opacity:1"
               id="path17237" /><path
               class="point"
               transform="translate(312.2,31.54)"
               d="M 9.66,0 A 9.66,9.66 0 1 1 0,-9.66 9.66,9.66 0 0 1 9.66,0 Z"
               style="opacity:0.7;fill:#636efa;fill-opacity:1;stroke:#ffffff;stroke-width:1px;stroke-opacity:1"
               id="path17239" /></g><g
             class="text"
             id="g17243" /></g><g
           class="trace scatter tracea67be4"
           style="opacity:1;stroke-miterlimit:2"
           id="g17259"><g
             class="fills"
             id="g17247" /><g
             class="errorbars"
             id="g17249" /><g
             class="lines"
             id="g17253"><path
               class="js-line"
               d="m 29.48,342 24.43,-3.38 3.05,-0.62 15.27,-4.07 3.05,-1.04 15.27,-6.8 3.05,-1.73 12.22,-8.47 3.05,-2.56 12.21,-12.29 3.06,-3.64 12.21,-17.03 3.05,-4.9 12.22,-22.15 3.05,-6.14 15.27,-33.59 3.05,-7.14 33.59,-76.95 3.05,-6.14 12.22,-22.16 3.05,-4.9 12.22,-17.03 3.05,-3.63 12.21,-12.29 3.06,-2.56 12.21,-8.47 3.05,-1.73 12.22,-5.66 3.05,-1.14 15.27,-4.43 3.05,-0.68 21.38,-3.37 3.05,-0.33 3.05,-0.3"
               style="opacity:1;vector-effect:none;fill:none;stroke:#636efa;stroke-width:4px;stroke-opacity:1"
               id="path17251" /></g><g
             class="points"
             id="g17255" /><g
             class="text"
             id="g17257" /></g><g
           class="trace scatter traceac420e"
           style="opacity:1;stroke-miterlimit:2"
           id="g17273"><g
             class="fills"
             id="g17261" /><g
             class="errorbars"
             id="g17263" /><g
             class="lines"
             id="g17267"><path
               class="js-line"
               d="m 0,341.84 24.43,-3.5 3.05,-0.64 15.27,-4.17 3.05,-1.08 12.22,-5.3 3.05,-1.62 12.21,-7.93 3.06,-2.4 12.21,-11.52 3.05,-3.42 12.22,-16.04 3.05,-4.63 12.22,-21.05 3.05,-5.87 15.27,-32.4 3.05,-6.96 36.64,-83.21 3.06,-6.1 12.21,-22.03 3.05,-4.89 12.22,-17.02 3.05,-3.65 12.22,-12.36 3.05,-2.58 12.21,-8.57 3.06,-1.75 12.21,-5.76 3.05,-1.17 15.27,-4.54 3.05,-0.7 21.38,-3.48 3.05,-0.35 3.06,-0.31"
               style="opacity:1;vector-effect:none;fill:none;stroke:#ef553b;stroke-width:4px;stroke-opacity:1"
               id="path17265" /></g><g
             class="points"
             id="g17269" /><g
             class="text"
             id="g17271" /></g></g></g><path
       class="xlines-above crisp"
       d="M -88.843944,203.45297"
       style="fill:none;stroke-width:0.264583"
       id="path17281" /><path
       class="ylines-above crisp"
       d="M -88.843944,203.45297"
       style="fill:none;stroke-width:0.264583"
       id="path17283" /></g></svg>
